<svg width="163" height="163" viewBox="0 0 163 163" fill="none" xmlns="http://www.w3.org/2000/svg">
    <mask id="mask0" mask-type="alpha" maskUnits="userSpaceOnUse" x="0" y="0" width="163" height="163">
        <path
            d="M81.5 163C126.511 163 163 126.511 163 81.5C163 36.4888 126.511 0 81.5 0C36.4888 0 0 36.4888 0 81.5C0 126.511 36.4888 163 81.5 163Z"
            fill="#F6F5FA"
        />
    </mask>
    <g mask="url(#mask0)">
        <path
            d="M81.5 163C126.511 163 163 126.511 163 81.5C163 36.4888 126.511 0 81.5 0C36.4888 0 0 36.4888 0 81.5C0 126.511 36.4888 163 81.5 163Z"
            fill="#151941"
        />
        <path d="M145.043 81.5012C145.043 46.4181 116.603 17.9775 81.5195 17.9775V81.5012H145.043Z" fill="#837AD4" />
        <path d="M57.6688 113.657H105.325L123.711 179.21H39.283L57.6688 113.657Z" fill="white" />
        <path
            d="M126.701 103.649C126.701 127.158 103.225 139.52 81.4611 139.52C59.6976 139.52 36.2212 127.158 36.2212 103.649C36.2212 80.1394 59.6976 66.3074 81.4611 66.3074C103.225 66.3074 126.701 80.1394 126.701 103.649Z"
            fill="#151941"
        />
        <path
            d="M45.171 66.3063C45.1474 70.8578 46.4728 80.7104 47.0075 83.2333L63.9466 67.3136C62.9365 65.8907 61.1639 63.2188 57.6361 59.0215C54.1083 54.8243 50.4104 51.9232 48.0578 52.8556C45.7052 53.788 45.2064 59.4553 45.171 66.3063Z"
            fill="white"
        />
        <path
            d="M117.696 66.3063C117.72 70.8581 116.395 80.7111 115.861 83.2341L98.9217 67.3125C99.9316 65.8896 101.704 63.2177 105.231 59.0204C108.759 54.8231 112.456 51.9221 114.809 52.8547C117.161 53.7873 117.66 59.4549 117.696 66.3063Z"
            fill="white"
        />
        <path
            d="M126.701 101.21C126.701 124.719 103.225 133.059 81.4611 133.059C59.6976 133.059 36.2212 124.719 36.2212 101.21C36.2212 77.7005 59.6976 63.8684 81.4611 63.8684C103.225 63.8684 126.701 77.7005 126.701 101.21Z"
            fill="white"
        />
        <path
            fill-rule="evenodd"
            clip-rule="evenodd"
            d="M83.722 96.1965C83.722 96.1956 83.722 96.1948 83.722 96.1939C83.722 94.9736 82.7464 93.9844 81.5429 93.9844C80.433 93.9844 79.517 94.8256 79.3811 95.9134C79.3167 96.1686 79.2531 96.4295 79.1885 96.6943L79.1885 96.6944L79.1885 96.6945C78.7651 98.4306 78.3008 100.335 77.3166 101.885C75.6362 104.532 73.3053 104.807 72.3956 104.757L72.1807 108.723C74.0651 108.826 77.9818 108.215 80.6425 104.024C80.974 103.501 81.2629 102.949 81.5162 102.388C81.7696 102.949 82.0585 103.501 82.39 104.024C85.0507 108.215 88.9674 108.826 90.8518 108.723L90.6369 104.757C89.7272 104.807 87.3963 104.532 85.7159 101.885C84.7317 100.335 84.2673 98.4306 83.844 96.6945L83.8439 96.6942L83.8438 96.6938C83.803 96.5263 83.7625 96.3604 83.722 96.1965Z"
            fill="#151941"
        />
        <ellipse cx="59.8336" cy="89.5485" rx="3.68349" ry="5.56042" fill="#151941" />
        <ellipse cx="103.031" cy="89.5477" rx="3.68349" ry="5.56042" fill="#151941" />
    </g>
</svg>
