<svg id="3173a834-c95b-47ad-a017-18be1598d144" data-name="Слой 1" xmlns="http://www.w3.org/2000/svg" xmlns:xlink="http://www.w3.org/1999/xlink" viewBox="0 0 163 163"><defs><mask id="252aea63-7b4d-4068-a4ab-1c82df2beddf" x="0" y="0" width="163" height="179.21" maskUnits="userSpaceOnUse"><g id="8e701d2b-9b99-4936-9477-8903adfc283e" data-name="mask0"><path d="M81.5,163A81.5,81.5,0,1,0,0,81.5,81.5,81.5,0,0,0,81.5,163Z" fill="#f6f5fa"/></g></mask></defs><title>logologo</title><g mask="url(#252aea63-7b4d-4068-a4ab-1c82df2beddf)"><path d="M81.5,163A81.5,81.5,0,1,0,0,81.5,81.5,81.5,0,0,0,81.5,163Z" fill="#151941"/><path d="M145,81.5A63.52,63.52,0,0,0,81.52,18V81.5Z" fill="#837ad4"/><path d="M57.67,113.66h47.65l18.39,65.55H39.28Z" fill="#fff"/><path d="M126.7,103.65c0,23.51-23.48,35.87-45.24,35.87s-45.24-12.36-45.24-35.87S59.7,66.31,81.46,66.31,126.7,80.14,126.7,103.65Z" fill="#151941"/><path d="M45.17,66.31A123.62,123.62,0,0,0,47,83.23L64,67.31c-1-1.42-2.79-4.09-6.31-8.29s-7.23-7.1-9.58-6.16S45.21,59.46,45.17,66.31Z" fill="#fff"/><path d="M117.7,66.31a125.22,125.22,0,0,1-1.84,16.92L98.92,67.31c1-1.42,2.78-4.09,6.31-8.29s7.23-7.1,9.58-6.17S117.66,59.45,117.7,66.31Z" fill="#fff"/><path d="M126.7,101.21c0,23.51-23.48,31.85-45.24,31.85s-45.24-8.34-45.24-31.85S59.7,63.87,81.46,63.87,126.7,77.7,126.7,101.21Z" fill="#fff"/><path d="M83.72,96.2h0a2.18,2.18,0,0,0-4.34-.28c-.06.26-.13.52-.19.78h0a17.42,17.42,0,0,1-1.87,5.2,5.61,5.61,0,0,1-4.92,2.87l-.22,4a9.49,9.49,0,0,0,8.46-4.7,14.21,14.21,0,0,0,.88-1.63,12.74,12.74,0,0,0,.87,1.63,9.5,9.5,0,0,0,8.46,4.7l-.21-4a5.61,5.61,0,0,1-4.92-2.87,17.45,17.45,0,0,1-1.88-5.2h0Z" fill="#151941"/><ellipse cx="59.83" cy="89.55" rx="3.68" ry="5.56" fill="#151941"/><ellipse cx="103.03" cy="89.55" rx="3.68" ry="5.56" fill="#151941"/></g></svg>